<svg xmlns="http://www.w3.org/2000/svg" width="400" height="393.333" version="1.0" viewBox="0 0 300 295"><g fill="#0080FF" stroke="#000" stroke-width=".1"><path d="M145.6 46.7c-2.3 2.3-2.7 3.3-2.1 6.3 1.3 7 1.7 14 .8 14-1.5 0-8.3-7.5-8.3-9.2 0-2.4-3.7-6.5-6.5-7-2.3-.5-6.1 1.3-7.7 3.6-1.9 2.7-.6 6.1 4.2 11.3 4.9 5.4 6 7.3 4 7.3-.5 0-1 .4-1 1 0 .5.6 1 1.3 1 2.2 0 7.6 6.3 8.3 9.6.4 2.3.2 3.3-1 3.7-1.2.5-1.6 0-1.6-1.6 0-3-9-13.7-11.1-13.1-1.8.5-11.9-9.6-11.9-12 0-2.5-5.1-5.8-8-5.1-4.4 1.1-6.1 3.5-5.8 7.9.3 3.4.9 4.4 3.7 6.1 2.9 1.7 19.1 16 19.8 17.5.2.3-4.2.5-9.7.6-7.3.1-10-.2-10-1.1 0-.7-2.1-3.4-4.6-6.1-2.6-2.7-5.2-6.3-5.9-7.9-1.6-3.7-4.2-6-7.6-6.9-2-.4-3.3 0-5.3 2-4.3 4.4-3.2 10 2.6 13C85.5 83.3 96 92.8 96 94c0 .4-.9 2.8-2 5.4l-2.1 4.6-5.7-6.1c-3.1-3.4-6-7-6.4-7.9-1-2.6-4.8-5-7.8-5-3.2 0-7 3.8-7 6.8 0 3.4 2.8 7 6.5 8.2 4.1 1.3 12.2 9.9 10.4 11-1.8 1.2-8.2.4-11.7-1.4-4.1-2.1-5.4-2-8.6.5-3.3 2.6-3.6 7.9-.5 11 1.7 1.7 3 2 8.2 1.7 5-.2 6.2 0 6.2 1.2 0 .8-.9 1.6-2 1.8-3.2.6-6.5 4.3-6.5 7.2 0 3.7 3.6 8 6.6 8 1.4 0 4.2-.9 6.4-2s5.9-2 8.5-2H93l-.2 13.7c-.3 16 .9 19.8 7.3 23.9 3.7 2.3 4.6 2.4 20.4 2.4 9.1 0 16.5.3 16.5.6s-.5 1.4-1 2.4c-.9 1.7-1.8 1.8-6.8 1.4-6.3-.6-11.3 1.4-14 5.4-1.2 1.9-1.1 2.4 1.2 4.7 2.5 2.4 2.8 2.5 16.8 2.5 7.9 0 14.9.4 15.6.9 1 .6.6 1.4-1.7 3.4-1.7 1.4-3.1 3-3.1 3.5s-4.4.8-10.2.6c-8-.2-10.7.1-12 1.3-1.4 1.3-2 1.3-4.7-.1-3.5-1.9-8.5-2-13.1-.5-3 1.1-3.4 1-5.8-2.1-3.4-4.4-7.8-6-16-6-5.5 0-7.5.4-9.6 2.1l-2.6 2V214c0 8.2.3 15.6.6 16.5 1.9 4.8 17.6 5.8 25.3 1.4 3.7-2.1 4.2-2.1 5.8-.7 1 .9 3.7 2.2 6 2.8 3.4 1.1 4.9 1 8.5-.1 3-1 5.1-1.2 7-.5 2 .7 3.5.6 5.3-.4 2.8-1.5 3.1-2.2 4-10.3.3-3.1 1-5.7 1.5-5.7.4 0 1 2.9 1.2 6.4.6 9.5 4.4 12.9 10.3 9 2.2-1.4 2.6-1.4 4.7 0 2.6 1.9 9 2.1 11.6.5 1.4-.9 2.5-.8 4.9.4 3.6 1.9 11.3 1.4 14.8-.9 2.3-1.5 2.8-1.4 7.1.7 4.2 2 5.3 2.1 9.9 1.2 2.8-.6 6.3-.9 7.8-.6 1.6.3 3.7-.1 5.1-1 2-1.4 2.5-2.7 3.1-9.1.4-4.2 1-7.6 1.4-7.6.5 0 1.1 3.3 1.5 7.2.7 7.9 2.6 10.8 7.1 10.8 4.3 0 5.5-2.9 5.5-12.8 0-5-.5-10.3-1-11.8-.9-2.3-.7-3.1 1.6-5.5 3.3-3.4 3.4-7.2.4-10.5-4.3-4.5-9.6-2.6-12.1 4.4-1.4 4-2.9 4-5.8.1-3.1-4.1-7.7-3.8-10.6.8-1.8 2.9-2.5 3.2-6.6 3.3-3.2 0-5.7.8-8.3 2.5-2 1.4-3.9 2.5-4.1 2.5s-2.1-1.1-4.1-2.5c-4-2.7-10.9-3.4-14.5-1.5-1.4.8-2.6.7-4.6-.4-3.1-1.6-7.5-7-6.6-8 .4-.3 6.8-.6 14.4-.6 13 0 13.9-.1 16.5-2.3l2.7-2.4-3.6-3.9c-3.4-3.7-3.8-3.9-10.3-4.1-6.3-.1-8.3-1-8.4-3.7 0-.5 5.8-.6 13.8-.2 15.3.7 18.8 0 23.5-4.3 5.2-4.7 5.7-6.8 5.7-22.1v-14h5.6c4.1 0 6.3.5 8.1 2 3.3 2.6 6.3 2.5 9.7-.1 3.6-2.8 3.6-8 0-10.8-1.5-1.2-3.5-2.1-4.4-2.1-1.3 0-1.7-.6-1.3-2.1.5-1.8 1.1-2 5.3-1.4 5.8.8 8.3-.3 10-4.5 1.1-2.7 1-3.3-1.3-6.3-2.6-3.5-6.1-4.1-10.3-1.9-2.7 1.4-10.1 2.5-11.5 1.7-1.6-1.1 6.8-9.2 11.7-11.4 4.7-2.1 4.9-2.4 5.9-6.8.9-4.4-3-8.6-7.7-8.1-3.1.3-7.7 5.1-15.4 16-3 4.3-4.4 4.8-4.4 1.7 0-1.2-1-3.9-2.2-6.2-1.9-3.3-2.1-4.1-.8-4.5.8-.3 3.7-2.6 6.5-5.2 2.7-2.6 5.9-5 7-5.4 2.4-.7 5.5-5.5 5.5-8.4 0-2.5-4.5-6.2-7.5-6.2-2.8 0-7.5 3.6-7.5 5.8-.1.9-2.3 4.1-5 7.1-2.8 3-5 6.4-5 7.5 0 1.6 1.4.7 6.5-4.4 4.8-4.7 6.5-7.2 6.5-9.1 0-3.7 2.4-5.5 5.8-4.3 4.9 1.7 3.9 9.4-1.3 9.4-1.4 0-4.4 2.3-8.5 6.5-6.1 6.4-6.3 6.5-8.2 4.8-1.7-1.5-3.8-1.8-12.4-1.8-5.7 0-10.4-.2-10.3-.5.1-1.1 16.2-14.6 19.7-16.6 4.1-2.3 6.7-7.6 5.1-10.7-3-5.5-10-5.4-13.4.2-2.3 3.9-9.5 12.1-10.4 12-.3 0-1.7-1.3-2.9-3l-2.4-2.9 3-2.8c3.9-3.7 4.8-6.7 2.7-9.8-4.1-6.3-10.4-5.2-13.6 2.3-1.9 4.5-6.5 10.2-8.1 10.3-1.2 0-.9-7.5.4-12.6 1.3-4.6 1.2-4.6-2-7.5-4-3.6-6.2-3.7-9.6-.2zm8.2 1.5c1.7 1.7 1.5 5.3-.3 6.8-1.2 1-1.5 4.3-1.5 17.7 0 14.5-.2 16.4-1.6 16.1s-1.6-2.4-1.5-16.6c.1-10.3-.2-16.2-.8-16.2s-1.5-.9-2.1-2.1c-2.4-4.3 4.3-9.2 7.8-5.7zm-22.3 6.5c1 .9 1.5 2.6 1.2 3.9-.3 1.8 1 3.8 5.9 8.7l6.4 6.4v7.7c0 6.6-.2 7.7-1.6 7.4-1.3-.2-1.7-1.7-1.8-7l-.1-6.7-6-6.1c-3.3-3.3-6.7-6-7.7-6-2.2 0-4.8-3.8-4.1-5.9 1.6-4.3 4.9-5.4 7.8-2.4zm44.3-.5c2.1 2.1 1.4 5.6-1.5 7.5-1.6.9-5.6 4.4-9 7.7l-6.3 6v6.8c0 5.4-.3 6.8-1.5 6.8s-1.5-1.5-1.5-7.8v-7.8l6.3-6.2c5.1-5.1 6.3-6.8 5.9-8.8-.8-4.4 4.5-7.3 7.6-4.2zm-66.2 7.3c.8 1.3 1.3 2.8 1 3.3-.3.6 4.5 6 10.7 12.2 8.9 9 10.8 11.4 9.3 11.8-1.3.3-4.9-2.6-12.5-10.1-5.9-5.9-11.2-10.3-11.9-10-1.7.7-5.2-2.5-5.2-4.8s2.7-4.9 5-4.9c1.1 0 2.7 1.1 3.6 2.5zm88.8-.9c.9.8 1.6 2.3 1.6 3.1 0 2.4-3 5.3-5.4 5.3-1.4 0-5.8 3.6-12.1 10-8.6 8.7-13.5 12-13.5 9.2 0-.4 4.7-5.4 10.5-11.2 7-6.9 10.5-11.2 10.5-12.7 0-2.6 2.5-5.3 5-5.3 1 0 2.6.7 3.4 1.6zM87.2 70.7c1 .9 1.8 2.6 1.8 3.9 0 1.5 2.3 4.4 6.5 8.5 5.5 5.3 6.3 6.4 4.9 7.2-1.3.7-3-.4-7.8-5.2-3.8-3.8-7-6.1-8.4-6.1-1.2 0-2.9-1.1-3.8-2.5-1.5-2.3-1.5-2.7 0-5 1.9-2.9 4.2-3.2 6.8-.8zm86.6 1c.8 1.3-.2 3.1-4.4 8-3.3 3.9-5.1 6.8-4.8 7.8.4 1 0 1.5-1 1.5-3.1 0-1.9-5.4 2.4-10.2 2.1-2.5 3.7-4.8 3.3-5.1-1-1 .6-3.7 2.1-3.7.8 0 1.9.8 2.4 1.7zm59 20.2c.5 3-1.5 5.1-4.7 5.1-2 0-4.6 1.9-10.1 7.5-4.1 4.1-8 7.5-8.7 7.5s-1.3-1.1-1.3-2.5.6-2.5 1.3-2.5c2.1 0 13.4-12.3 14.1-15.3 1.2-5.3 8.6-5.1 9.4.2zm-157-2.7c.7.7 1.2 2.1 1.3 3.2 0 1.3 3.1 4.8 7.9 9.1 7.2 6.5 9.8 10.5 6.7 10.5-.7 0-4.6-3.4-8.7-7.5C77.5 99 74.9 97 72.9 97c-3.8 0-6.2-3-5-6.4.8-2 1.7-2.6 3.9-2.6 1.5 0 3.3.5 4 1.2zm123 5.5c5 3.1 5.3 5.9 5 39.9l-.3 31.6-3.7 3.4-3.8 3.4h-91.2l-3.9-3.9-3.9-3.9V100l2.9-3.2 2.9-3.3 43.9-.5c24.1-.3 45.2-.4 46.8-.2 1.7.2 4.1 1.1 5.3 1.9zM69.7 113c1.5 1.8 3 2 12.5 2 10.3 0 10.8.1 10.8 2.1s-.4 2-11.5 1.8c-7.8-.2-11.9.1-12.7.9-1.7 1.7-3.8 1.5-6-.5s-2.3-4.1-.1-6.5c2.1-2.4 4.9-2.3 7 .2zm168.7 1.2c1.7 4.7-4.3 9.1-7.3 5.4-.9-1.1-3.5-1.2-12.1-.8-10.7.5-11 .4-11-1.7 0-2 .4-2.1 10.8-2.1 9.7 0 10.8-.2 12-2.1 1.9-3 6.4-2.2 7.6 1.3zm-15.4 9.3c.7.9 1.1 1.7.9 1.9s-3.9.6-8.1.8c-6.9.3-7.8.1-7.8-1.4 0-1.3 1.1-1.8 4.8-2.1 2.6-.2 5.7-.4 6.8-.5 1.2-.1 2.7.5 3.4 1.3zm-130 .9c0 .8-1.6 1.5-4.2 1.9-5.6.8-9.8-.1-9.1-1.9.7-2 13.3-2 13.3 0zm-15.9 5.2c2.4 1.2 4.6 1.4 9.5.9 6.1-.7 6.4-.6 6.4 1.4 0 1.9-.5 2.1-6.6 2.1-5.9 0-6.8.3-8.6 2.5-1.1 1.4-2.6 2.5-3.4 2.5-1.9 0-5.4-3.6-5.4-5.5 0-1.4 3.4-5.5 4.5-5.5.4 0 2 .7 3.6 1.6zm152.1-.4c2.8 2.2 3.1 5.5.9 7.7-2.7 2.7-3.7 2.6-6.7-.4-2.1-2.2-3.4-2.5-8.9-2.5-5.9 0-6.5-.2-6.5-2.1s.5-2.1 7.3-1.8c4.2.2 8-.2 9.2-.9 2.5-1.5 2.8-1.5 4.7 0zM161.5 181l1.8 4h7.3c6.8 0 7.6.2 10.6 3l3.3 2.9-33.2.1c-19.8 0-33.3-.4-33.3-.9s1.2-1.9 2.6-3c2.1-1.7 4.1-2.1 9.7-2.1 7.3 0 8.6-.7 10.7-5.8.9-2 1.6-2.2 9.8-2.2h8.9zm69.1 16.5c.8 3.2-1.1 5.5-4.6 5.5s-5.4-2.2-4.6-5.5c1.3-5.1 7.9-5 9.2 0zm-73.5 8.5c2.1 0 3.9.4 3.9.9 0 2.8-1.4 4.1-4.6 4.1H153v5.4c0 7.3.6 8.6 4.1 8.6 1.6 0 2.9.3 2.9.7 0 .5.3 1.8.6 3 .6 2.1.3 2.3-3.3 2.3-3 0-4.7-.7-6.7-2.6-2.3-2.4-2.6-3.4-2.6-10 0-5.9-.3-7.4-1.5-7.4-.9 0-1.5-.9-1.5-2.5s.6-2.5 1.6-2.5c1.2 0 1.5-.7 1.2-2.5-.3-1.6-.1-2.5.7-2.5.7 0 1.9-.7 2.6-1.7 1.2-1.4 1.4-1.2 1.7 2.5.3 4.2.3 4.2 4.3 4.2zm53.5-2.4-.6 5.6 2.6-2.1c3.7-2.9 6.8-2.6 10.6.8 3.3 2.9 3.3 3.1 3.6 13l.4 10.1H221v-8.8c0-7.5-.3-9.2-1.9-10.6-1.7-1.6-2.3-1.6-4.8-.4-2.7 1.3-2.8 1.5-3.1 10.6l-.3 9.2H205v-33h6.3zm-116.1-2.1c3 2.9 3.3 7.3.6 10.6-1.8 2.2-1.8 2.3.1 3.8 1 .9 2.1 3.2 2.4 5.2.5 2.9.1 4.1-1.9 6.5-2.4 2.8-2.9 2.9-12.4 3.2l-9.8.4V199h9.3c8.5 0 9.5.2 11.7 2.5zm20.5 5c4.1 2.1 6 5.3 6 10.2v4.3h-8c-8.3 0-9.6.8-5.8 3.4 2.6 1.8 6.1 2.1 8.8.6 1.5-.8 2.1-.6 3.1 1.2 1.9 3.5-1.9 5.5-9.5 4.9-6.3-.5-10.6-6.1-10.6-13.6 0-4.9 2.3-8.9 6.2-10.8 4.1-2.1 6.1-2.1 9.8-.2zm12 .7c0 1.9.1 2 1.8.5 3.8-3.4 11.2-2.6 13.9 1.5.4.7 1 5.9 1.3 11.6l.5 10.2H139v-8.1c0-9.5-1-11.9-4.9-11.9-5 0-6.4 2.8-6 11.9l.4 8.1H123v-13c0-12.3.1-13 2-13 1.4 0 2 .7 2 2.2zm52.3 1.8c2.1 2.4 2.7 4 2.7 7.5v4.5h-8.1c-6 0-8 .3-7.7 1.2 1.1 3.2 7.2 4.4 12 2.4 2.1-.9 4.6 3 2.9 4.7-1.9 1.9-11.8 2.1-14.6.3-6.4-4.2-8.3-12.7-4.2-18.7 4.5-6.7 11.9-7.6 17-1.9zm20.6-2.9c2.3.8 3.1 1.7 3.1 3.5 0 2.2-.3 2.3-4.9 1.7-4.1-.5-5.2-.2-7 1.6-3.1 3.1-2.8 8.4.6 11.1 2.7 2.1 5 2.2 9.6.5 1.3-.6 1.7-.2 1.7 1.9 0 3.1-2.5 4.6-7.5 4.6-7.7 0-11.5-4.2-11.5-13 0-3.8.6-5.5 2.7-8 4-4.8 7.5-5.9 13.2-3.9zm.8 10.5c.9 2.4-1 4.9-3.7 4.9-3.1 0-4.8-2.8-3.1-4.9s6-2.1 6.8 0z"/><path d="M149.1 50c-1.7 1-.7 4 1.3 4 .7 0 1.6-.6 1.9-1.4.8-1.9-1.5-3.7-3.2-2.6zm-22.9 7.7c.5 2.6 3.8 2.9 3.8.4 0-1.5-.6-2.1-2.1-2.1-1.4 0-1.9.5-1.7 1.7zm44 0c.2 1 1 1.8 1.8 1.8s1.6-.8 1.8-1.8c.2-1.2-.3-1.7-1.8-1.7s-2 .5-1.8 1.7zM103.5 63c-.4.7-.3 1.6.3 2.2 1.4 1.4 4.5.2 4-1.5-.6-1.6-3.4-2.1-4.3-.7zm90.2-1.4c-1.6 1.6-.7 4.4 1.4 4.4 1.5 0 2-.5 1.7-2.2-.3-2.2-1.9-3.3-3.1-2.2zM82.5 73c-.4.7-.3 1.6.3 2.2 1.4 1.4 4.5.2 4-1.5-.6-1.6-3.4-2.1-4.3-.7zm143.9 18.5c-.7 1.8.3 3.5 2.1 3.5s2.6-2.5 1.2-3.9c-1.5-1.5-2.7-1.4-3.3.4zm-156 0c-.7 1.8.3 3.5 2.1 3.5s2.6-2.5 1.2-3.9c-1.5-1.5-2.7-1.4-3.3.4zm34.1 9-2.5 2.4v27.4c0 22.3.3 27.7 1.4 28.6 1.8 1.5 92.5.5 94.4-1.1.9-.8 1.2-7.4 1.2-27 0-27-.5-30.6-4.5-32.2-.9-.3-21-.6-44.6-.6h-43zm18.9 5.2c-.3 2.1-1.3 4.2-2.2 4.8-4.3 2.8-5.4 4.6-4.7 8.2.6 3.2.5 3.5-1.2 2.7-1-.4-3.5-.8-5.5-.7l-3.8.1v-8.2c0-5 .5-8.7 1.2-9.4s4.3-1.2 9-1.2h7.9zm22.6 2.9c0 4.8-.2 5.4-2.1 5.4-1.5 0-1.9-.4-1.5-1.6.3-.9.6-3.5.6-6 0-3.4.3-4.2 1.5-3.8 1.1.5 1.5 2.1 1.5 6zm6-1.1c0 4.2-.3 5.5-1.5 5.5s-1.5-1.3-1.5-5.5.3-5.5 1.5-5.5 1.5 1.3 1.5 5.5zm6 1c0 5.3-.3 6.3-1.5 5.9-1.1-.4-1.5-2.1-1.5-5.8 0-2.9.3-5.6.7-5.9 1.7-1.7 2.3-.2 2.3 5.8zm7.2-6c.8.9-1.5 5.5-2.7 5.5-.9 0-1.3-4.4-.6-5.8.2-.4 2.8-.2 3.3.3zm27.4.3c1.7 1.2 2.4 5.2 1.7 11.4-.5 5.3-.8 5.8-3 5.8-1.3 0-3.7.7-5.3 1.5l-3 1.5 1-2.6c1.3-3.2-.5-7.5-3.8-8.9-1.3-.6-2.2-1.9-2.2-3.2 0-1.2-.3-2.8-.6-3.6-.3-1 .2-1.7 1.3-2 3-.8 12.7-.7 13.9.1zm-60.8 1.4c.7.7 1.2 1.8 1.2 2.6s1.8 3.2 4 5.3c2.2 2.2 4 4.3 4 4.8 0 1-5.8 2.1-11.2 2.1-2.1 0-3.8.4-3.8.9 0 1.5-3 2.1-5.1 1.1-2.1-1.2-2.5-5-.7-6.8 1.7-1.7 4.7-1.5 5.4.3.4 1.1 2.1 1.5 5.5 1.5 2.7 0 4.9-.3 4.9-.6 0-1.1-4.5-4.3-6-4.4-3.8 0-5.4-5.1-2.2-6.9 2.2-1.3 2.6-1.3 4 .1zm42.6 1c1.9 2.7.5 5.8-2.8 5.8-1.3 0-3.8 1.5-5.7 3.5-1.9 1.9-4 3.5-4.6 3.5-2.6 0-1.2-3 2.7-6.1 2.2-1.8 4-4 4-5 0-1.6 2.4-3.8 4.2-3.9.4 0 1.4 1 2.2 2.2zm6.4 9c1.7 1.7 1.5 5.3-.4 6.9-1.3 1.1-1.9 1-3.7-.1-1.2-.8-4.4-1.7-7-2-6.3-.7-6.5-2.4-.3-2.8 2.7-.2 5.5-1 6.3-1.8 1.8-1.7 3.5-1.8 5.1-.2zm-24.9 3.2c3.3 1.8 5.1 5.4 5.1 10.7 0 5.8-4.2 9.9-10.2 9.9-5.2 0-8.5-2.1-10.4-6.6-1.9-4.6-.8-8.9 3.3-12.4 3.8-3.3 7.7-3.9 12.2-1.6zm-18.1 4.8c-.3.7-1 1.3-1.6 1.2-.7-.1-2.8-.2-4.7-.3-5.5-.2-4.1-2.1 1.6-2.1 3.6 0 4.9.4 4.7 1.2zm33-.6c1.2.4 2.2 1.1 2.2 1.6 0 1.4-9.3.5-9.8-1-.4-1.3 3.6-1.6 7.6-.6zm23.2 4.8c0 3.5-2.6 5.3-5.2 3.7-1.4-.9-5.5-1.2-13.2-1-9.1.2-11.1 0-11.1-1.2 0-1.1 2.2-1.5 10.8-1.7 9.2-.2 11.1-.6 12.8-2.3 2.5-2.5 5.9-1 5.9 2.5zm-80.4-1.9c.5 1.2 2.7 1.5 11.5 1.5 9.8 0 10.9.2 10.9 1.8s-1 1.7-10.4 1.4c-6.4-.3-11.1 0-12.4.7-2.6 1.4-4.9.5-5.7-2-1.2-3.8 4.7-7 6.1-3.4zm12 7.4c.5.6 3.3 1.1 6.3 1.3 7.4.4 8.3 2.8 1.1 2.8-4.1 0-5.5.5-6.9 2.1-3.4 4.3-8.6-.2-5.6-4.7 1.6-2.5 3.5-3 5.1-1.5zm54.9 1.5c1.3 1.9 1.4 2.9.5 4.5-1.4 2.7-4.6 2.7-6 .1-.9-1.6-2.1-2-6.5-2-4.2 0-5.5-.3-5.5-1.5s1.3-1.5 5.8-1.5c3.1 0 6.4-.5 7.2-1 2.2-1.4 2.8-1.2 4.5 1.4zm-67.4.6c3.8 0 3.9.1 3.9 3.4 0 2.7.7 3.9 3 5.6 1.9 1.4 3 3 3 4.6 0 3.1 3.3 6.4 6.4 6.4 1.4 0 3.6-1.3 5.3-3 3.6-3.8 4.3-3.8 4.3.4 0 2.5-.5 3.6-1.7 3.9-1.6.4-22.5.3-29-.2-2.2-.1-2.3-.4-2.3-11.2 0-9.7.2-11 1.6-10.5.9.3 3.3.6 5.5.6zm81.2 9.9c-.1 5.7-.5 10.6-.8 11-.9.9-31.7.3-32.5-.6-.4-.4-.2-2.3.4-4.1l1.2-3.3 3.2 3.6c2.6 2.8 3.8 3.4 5.5 2.9 3.5-1 6.8-4.6 6.5-7-.2-1.4.8-3 2.9-4.8 1.7-1.4 3.4-3.7 3.7-5 .5-2 1.4-2.6 4.4-2.9 2-.2 4.1-.3 4.7-.2s.9 4.2.8 10.4zm-23.7-.9c4.3 0 6 5.1 2.3 7-2.2 1.2-4.9-.1-4.9-2.5 0-.7-1.8-2.9-4.1-5-2.7-2.4-3.9-4.2-3.4-5.2.5-1.3 1.3-1 4.3 2 2.1 2 4.7 3.7 5.8 3.7zm-29.6-5.2c0 .4-1.6 2.4-3.6 4.3-2 1.8-4 4.4-4.5 5.7-1.8 4.7-7.3 3.4-6.7-1.7.2-2.1.8-2.6 3.1-2.6 1.7-.1 3.9-1.3 6-3.3 3-3 5.7-4.2 5.7-2.4zm5 10.3c0 6.3-.2 6.9-2.1 6.9s-2-.4-1.5-7.3c.2-3.9.5-7.3.5-7.4.1-.1.8 0 1.6.3 1.1.5 1.5 2.3 1.5 7.5zm12-.6c0 6-.3 7.5-1.5 7.5s-1.5-1.4-1.5-6.9c0-6.3.3-7.3 2.8-8 .1-.1.2 3.3.2 7.4zm-6 1c0 5.1-.3 6.5-1.5 6.5s-1.5-1.4-1.5-6.5.3-6.5 1.5-6.5 1.5 1.4 1.5 6.5z"/><path d="M147.5 120.2c-7.4 4-5.3 14.8 2.9 14.8 6.9 0 10.2-8.5 5.1-13.5-2.6-2.7-4.9-3.1-8-1.3zm6.3 4c2.1 2.1 1.4 5.7-1.2 7-1.4.6-3.2.8-4 .5-2.1-.8-3.1-5.4-1.6-7.2s5.1-2 6.8-.3zm22.4 11.5c.5 2.5 2.8 2.8 2.8.4 0-1.2-.6-2.1-1.6-2.1-.9 0-1.4.7-1.2 1.7zm-27.6 27.9c-1.7 1.6-1.2 4 .9 4.8 1.9.7 4.6-2 3.9-3.9-.8-2.1-3.2-2.6-4.8-.9zm19.9 1.4c-.8 1.3.3 3 2 3 1.4 0 2.7-2.4 1.8-3.4-1-.9-3.1-.7-3.8.4zm7.9.1c-1 1.7 1.3 3.6 2.7 2.2 1.2-1.2.4-3.3-1.1-3.3-.5 0-1.2.5-1.6 1.1zm7.1-.1c-.4.7-.3 1.6.3 2.2 1.4 1.4 4.5.2 4-1.5-.6-1.6-3.4-2.1-4.3-.7zm7.9.1c-.8 1.4 1.1 3.3 2.5 2.5 1.6-1 1.3-3.6-.3-3.6-.8 0-1.8.5-2.2 1.1zM63.7 114.6c-1.1 1.1.5 3.4 2.4 3.4 1.2 0 1.9-.7 1.9-2 0-1.9-2.8-2.8-4.3-1.4zm168.3 1.5c0 2.5 3.3 2.2 3.8-.4.2-1.2-.3-1.7-1.7-1.7-1.5 0-2.1.6-2.1 2.1zM72.4 132.5c-.4.9-.2 2.1.4 2.7 1.5 1.5 4.4.1 4-1.9-.4-2.3-3.6-2.9-4.4-.8zm152.8-.2c-1.5 1.7.1 4.2 2.3 3.3 1.8-.6 1.7-3.7-.1-4.3-.6-.2-1.6.2-2.2 1zm-2.4 64.7c-.9 2.4 1 5 3.6 5 1.3 0 2.7-.7 3-1.6 1-2.6.7-2.9-.9-.8-1.3 1.6-1.6 1.7-2.5.4s-1-1.3-1.1 0c-.1.8-.4.1-.8-1.5-.5-2-.9-2.5-1.3-1.5zm-144 11 .4 4.1 5.7-.3c5-.3 5.6-.6 5.9-2.6.6-3.7-1.5-5.2-7.2-5.2h-5.2zm.2 13.5v4.5h3.9c8 0 12-3.3 8.6-7-1.4-1.5-3.1-2-7.2-2H79zm26.7-8.7c-1 1-1.7 2.2-1.7 2.5 0 .4 2.7.7 6 .7 4.3 0 6-.4 6-1.3 0-3.8-7.4-5.1-10.3-1.9zm61.5-.1-2.7 2.8 3.8.3c2 .2 5.2.2 7 0l3.2-.3-2.7-2.8c-1.5-1.5-3.4-2.7-4.3-2.7s-2.8 1.2-4.3 2.7zm47-139c.4 2.2 4.3 2.5 4.3.3 0-.8-1.1-1.6-2.3-1.8-1.9-.3-2.3 0-2 1.5z"/></g></svg>